<svg xmlns="http://www.w3.org/2000/svg" xmlns:xlink="http://www.w3.org/1999/xlink" width="100" height="100" viewBox="0 0 100 100">
  <defs>
    <clipPath id="clip-path">
      <rect id="Retângulo_23" data-name="Retângulo 23" width="100" height="100" transform="translate(230 -1)" fill="#fff" stroke="#707070" stroke-width="1"/>
    </clipPath>
  </defs>
  <g id="Logo" transform="translate(-230 1)" clip-path="url(#clip-path)">
    <g id="Logo-2" data-name="Logo" transform="translate(358.881 127.269)">
      <g id="Grupo_3" data-name="Grupo 3" transform="translate(-189.595 36.696)">
        <path id="path5668" d="M0,0,7.588-13.7l4.432,11.4L16.45,9.113,4.431,11.406-7.589,13.7Z" transform="translate(144.263 -93.913)" fill="#fc0"/>
        <path id="path11048" d="M0,0H8.806a7.7,7.7,0,0,0,5.516-2.23A7.7,7.7,0,0,0,16.6-7.724a7.763,7.763,0,0,0-2.274-5.524,7.763,7.763,0,0,0-5.524-2.274H0ZM17.18,26.635,8.806,12.271H0V26.635H-14.22V-27.5H8.59A19.964,19.964,0,0,1,28.513-7.58,19.887,19.887,0,0,1,22.088,7L33.565,26.635Z" transform="translate(100.545 -107.285)" fill="#ffca00"/>
        <path id="path11052" d="M0,0A46.7,46.7,0,0,0-2.219-10.125,32.16,32.16,0,0,1-5.166-2.809,32.258,32.258,0,0,1-45.18,11.539a32.638,32.638,0,0,1-3.772-1.784A32.583,32.583,0,0,1-52.463,7.5,32.291,32.291,0,0,1-64.432-26.836c-.08-.236-.161-.47-.236-.708-.071-.218-.137-.432-.2-.646V-28.2c-.068-.22-.132-.441-.194-.657s-.124-.44-.184-.663c-.038-.133-.075-.269-.108-.4-.051-.177-.093-.354-.136-.531-.051-.2-.1-.4-.145-.6s-.1-.4-.138-.6q-.138-.6-.25-1.205c-.045-.224-.086-.449-.127-.673s-.082-.451-.117-.677c-.024-.15-.051-.3-.071-.453-.031-.183-.058-.366-.082-.554-.036-.227-.064-.453-.092-.679q-.067-.516-.121-1.035c-.034-.306-.061-.608-.086-.911q-.032-.347-.054-.688-.072-1.032-.1-2.063-.019-.917-.01-1.841c.008-.612.031-1.227.065-1.841s.078-1.23.138-1.847c.031-.338.069-.677.108-1.015.027-.22.051-.438.083-.656.126-.981.285-1.955.482-2.93.059-.306.123-.612.19-.917a46.481,46.481,0,0,0-8.142,10.7A46.391,46.391,0,0,0-78.705-28.4v0A46.46,46.46,0,0,0-55.842,22.2,46.458,46.458,0,0,0-.828,14.756v0A46.244,46.244,0,0,0,0,0" transform="translate(140.502 -95.543)" fill="#fdc31e"/>
        <path id="path11056" d="M0,0A46.46,46.46,0,0,0-54.986,7.415c-.066.306-.13.612-.189.917q-.295,1.461-.482,2.929c-.03.219-.056.436-.083.656-.039.338-.077.677-.108,1.015-.061.616-.1,1.233-.138,1.847s-.057,1.23-.065,1.841,0,1.231.01,1.841q.03,1.034.1,2.063.022.341.054.688c.026.3.051.607.086.911q.051.519.121,1.035c.028.226.056.452.091.679.024.188.051.371.082.554.023.153.047.3.072.453.035.226.076.451.117.677s.082.45.127.673q.113.6.25,1.2c.041.2.088.4.138.6s.093.4.145.6c.043.177.085.354.136.53.033.135.07.271.108.4.06.22.12.439.184.663s.125.437.194.657v0c.067.216.134.43.2.647.075.238.157.471.236.708a32.144,32.144,0,0,1,2.917-7.2A32.248,32.248,0,0,1-6.9,12.448,32.266,32.266,0,0,1,8.617,48.917a46.716,46.716,0,0,1,2.219,10.126,46.226,46.226,0,0,1-.827,14.752,46.35,46.35,0,0,0,8.1-10.666A46.451,46.451,0,0,0,22.87,50.55,46.461,46.461,0,0,0,0,0" transform="translate(129.666 -154.585)" fill="#f59d04"/>
        <path id="path11060" d="M0,0A46.7,46.7,0,0,0-2.219-10.125,32.16,32.16,0,0,1-5.166-2.809,32.258,32.258,0,0,1-45.18,11.539a32.638,32.638,0,0,1-3.772-1.784A32.583,32.583,0,0,1-52.463,7.5,32.291,32.291,0,0,1-64.432-26.836c-.08-.236-.161-.47-.236-.708-.071-.218-.137-.432-.2-.646V-28.2c-.068-.22-.132-.441-.194-.657s-.124-.44-.184-.663c-.038-.133-.075-.269-.108-.4-.051-.177-.093-.354-.136-.531-.051-.2-.1-.4-.145-.6s-.1-.4-.138-.6q-.138-.6-.25-1.205c-.045-.224-.086-.449-.127-.673s-.082-.451-.117-.677c-.024-.15-.051-.3-.071-.453-.031-.183-.058-.366-.082-.554-.036-.227-.064-.453-.092-.679q-.067-.516-.121-1.035c-.034-.306-.061-.608-.086-.911q-.032-.347-.054-.688-.072-1.032-.1-2.063-.019-.917-.01-1.841c.008-.612.031-1.227.065-1.841s.078-1.23.138-1.847c.031-.338.069-.677.108-1.015.027-.22.051-.438.083-.656.126-.981.285-1.955.482-2.93.059-.306.123-.612.19-.917a46.481,46.481,0,0,0-8.142,10.7A46.391,46.391,0,0,0-78.705-28.4v0A46.46,46.46,0,0,0-55.842,22.2,46.458,46.458,0,0,0-.828,14.756v0A46.244,46.244,0,0,0,0,0" transform="translate(140.502 -95.543)" fill="#fc0"/>
      </g>
    </g>
  </g>
</svg>
