<svg xmlns="http://www.w3.org/2000/svg" width="392.142" height="93.821" viewBox="0 0 392.142 93.821">
  <g id="Reconcavo_Nome_Branco" data-name="Reconcavo Nome Branco" transform="translate(-1183.209 -909.221)">
    <g id="Grupo_3" data-name="Grupo 3" transform="translate(-8.214 23)">
      <g id="g5542" transform="translate(1210.665 937.373)">
        <path id="path5544" d="M-9.508-18.389h5.889A5.15,5.15,0,0,0,.068-19.88a5.15,5.15,0,0,0,1.525-3.673,5.19,5.19,0,0,0-1.52-3.692,5.191,5.191,0,0,0-3.692-1.521H-9.508ZM1.981-.577l-5.6-9.606H-9.508V-.577h-9.509v-36.2H-3.764A13.35,13.35,0,0,1,9.559-23.457a13.3,13.3,0,0,1-4.3,9.75L12.938-.577Z" fill="#fff"/>
      </g>
      <g id="g5546" transform="translate(1231.864 900.592)">
        <path id="path5548" d="M0,0H22.495V7.868H9.51v5.889H21V21.77H9.51v6.661H22.495V36.2H0Z" fill="#fff"/>
      </g>
      <g id="g5550" transform="translate(1309.072 924.533)">
        <path id="path5552" d="M-24.182-11.969a8.453,8.453,0,0,0-6.082-2.365,8.216,8.216,0,0,0-8.5,8.5,8.216,8.216,0,0,0,8.5,8.5A8.291,8.291,0,0,0-24.182.243l6.758,6.662a18.136,18.136,0,0,1-12.84,5.357,18.107,18.107,0,0,1-18.1-18.1,18.108,18.108,0,0,1,18.1-18.1,17.906,17.906,0,0,1,12.743,5.26Z" fill="#fff"/>
      </g>
      <g id="g5554" transform="translate(1334.276 919.514)">
        <path id="path5556" d="M-18.05-9.461a8.621,8.621,0,0,0-8.592,8.64,8.65,8.65,0,0,0,8.592,8.64A8.663,8.663,0,0,0-9.41-.821a8.631,8.631,0,0,0-2.528-6.112A8.632,8.632,0,0,0-18.05-9.461m0-9.46A18.15,18.15,0,0,1,.05-.772,18.065,18.065,0,0,1-5.259,12.005,18.066,18.066,0,0,1-18.05,17.279,18.024,18.024,0,0,1-30.822,12,18.023,18.023,0,0,1-36.1-.773,18.106,18.106,0,0,1-18.05-18.921" fill="#fff"/>
      </g>
      <g id="g5558" transform="translate(1394.336 972.995)">
        <path id="path5560" d="M-26.6-36.2-43.684-53.336V-36.2h-9.509V-72.4h3.862L-32.2-55.314V-72.4h9.508v36.2Z" fill="#fff"/>
      </g>
      <g id="g5562" transform="translate(1425.979 924.533)">
        <path id="path5564" d="M-24.181-11.969a8.45,8.45,0,0,0-6.081-2.365,8.215,8.215,0,0,0-8.495,8.5,8.215,8.215,0,0,0,8.495,8.5A8.288,8.288,0,0,0-24.181.243l6.759,6.662a18.14,18.14,0,0,1-12.84,5.357,18.106,18.106,0,0,1-18.1-18.1,18.107,18.107,0,0,1,18.1-18.1,17.905,17.905,0,0,1,12.743,5.26Z" fill="#fff"/>
      </g>
      <g id="g5566" transform="translate(1443.025 947.51)">
        <path id="path5568" d="M-15.4-23.458h7.386l-3.668-7.965ZM-30.8-10.715l16.895-36.2h4.3l17.039,36.2H-2.074L-4.3-15.445H-19.113l-2.172,4.73Z" fill="#fff"/>
      </g>
      <g id="g5570" transform="translate(1521.724 900.495)">
        <path id="path5572" d="M-38.083,0-54.929,36.25h-4.344L-76.168,0h9.558L-57.1,20.611-47.544,0Z" fill="#fff"/>
      </g>
      <g id="g5574" transform="translate(1520.661 919.514)">
        <path id="path5576" d="M-18.051-9.461a8.622,8.622,0,0,0-8.593,8.64,8.653,8.653,0,0,0,8.593,8.64A8.663,8.663,0,0,0-9.41-.821a8.631,8.631,0,0,0-2.528-6.112,8.633,8.633,0,0,0-6.113-2.528m0-9.46A18.15,18.15,0,0,1,.05-.772,18.064,18.064,0,0,1-5.259,12.005a18.068,18.068,0,0,1-12.792,5.274A18.027,18.027,0,0,1-30.825,12,18.024,18.024,0,0,1-36.105-.773,18.108,18.108,0,0,1-18.051-18.921" transform="translate(0 0)" fill="#fff"/>
      </g>
      <g id="g5578" transform="translate(1352.434 905.374)">
        <path id="path5580" d="M-23.416-9.575l-6.45-8.355a2.345,2.345,0,0,0-2.119-1.223h-5.939a2.353,2.353,0,0,0-2.121,1.227L-46.5-9.569a1.6,1.6,0,0,0-.335.95,1.085,1.085,0,0,0,.357.785,1.085,1.085,0,0,0,.817.277h3.363A2.2,2.2,0,0,0-40.4-8.644L-34.953-15l5.343,6.228.1.126a2.195,2.195,0,0,0,1.892,1.085h3.363a1.085,1.085,0,0,0,.817-.277,1.086,1.086,0,0,0,.357-.785,1.615,1.615,0,0,0-.34-.956" fill="#fff"/>
      </g>
      <g id="g5582" transform="translate(1191.423 974.675)">
        <path id="path5584" d="M0,0V-24.447H13.759v2.1H2.2v9.088h9.359v2.1H2.2V-2.1H13.759V0Z" fill="#fff"/>
      </g>
      <g id="g5586" transform="translate(1222.259 974.675)">
        <path id="path5588" d="M0,0-10.195-17.8l-.2-1.057V0h-2.2V-24.447h1.143L-1.261-6.632l.221,1.041V-24.447h2.2V0Z" fill="#fff"/>
      </g>
      <g id="g5590" transform="translate(1241.694 974.675)">
        <path id="path5592" d="M0,0H-.7L-1.977-1.96A6.026,6.026,0,0,1-3.921-.281a5.208,5.208,0,0,1-2.54.623H-7.74a5.891,5.891,0,0,1-2.343-.469A6,6,0,0,1-12-1.415a6.011,6.011,0,0,1-1.287-1.909,5.845,5.845,0,0,1-.469-2.336V-18.787a5.84,5.84,0,0,1,.469-2.336A6.011,6.011,0,0,1-12-23.032a5.979,5.979,0,0,1,1.919-1.287,5.891,5.891,0,0,1,2.343-.469H-6a5.839,5.839,0,0,1,2.335.469,6.026,6.026,0,0,1,1.909,1.287A6.059,6.059,0,0,1-.468-21.123,5.862,5.862,0,0,1,0-18.787v.988l-2.2.341v-1.329a3.8,3.8,0,0,0-.307-1.525,3.989,3.989,0,0,0-.836-1.237,3.972,3.972,0,0,0-1.236-.835A3.8,3.8,0,0,0-6.1-22.692H-7.637a3.809,3.809,0,0,0-1.527.308,4.056,4.056,0,0,0-1.244.835,3.922,3.922,0,0,0-.844,1.237,3.8,3.8,0,0,0-.307,1.525V-5.66a3.8,3.8,0,0,0,.307,1.525,4.018,4.018,0,0,0,.844,1.245,3.967,3.967,0,0,0,1.244.844,3.808,3.808,0,0,0,1.527.307H-6.1a3.8,3.8,0,0,0,1.525-.307A3.887,3.887,0,0,0-3.339-2.89,4.089,4.089,0,0,0-2.5-4.135,3.8,3.8,0,0,0-2.2-5.66v-5.1H-6.1v-2.1H0Z" fill="#fff"/>
      </g>
      <g id="g5594" transform="translate(1246.23 974.675)">
        <path id="path5596" d="M0,0V-24.447H13.759v2.1H2.2v9.088h9.36v2.1H2.2V-2.1H13.76V0Z" fill="#fff"/>
      </g>
      <g id="g5598" transform="translate(1330.065 1016.675)">
        <path id="path5600" d="M0,0-10.195-17.8l-.2-1.057V0h-2.2V-24.447h1.143L-1.261-6.632l.221,1.041V-24.447h2.2V0Z" transform="translate(-55 -42)" fill="#fff"/>
      </g>
      <g id="g5602" transform="translate(1292.659 974.675)">
        <path id="path5604" d="M0,0V-11.167H-9.36V0h-2.2V-24.447h2.2v11.184H0V-24.447H2.2V0Z" fill="#fff"/>
      </g>
      <g id="g5606" transform="translate(1302.765 966.885)">
        <path id="path5608" d="M0,0H6.564L3.341-11.269l-.068-.9-.068.9ZM7.143,2.1H-.6L-2.2,7.791H-4.484l7.16-24.447H3.835l7.2,24.447H8.763Z" fill="#fff"/>
      </g>
      <g id="g5610" transform="translate(1331.417 956.245)">
        <path id="path5612" d="M0,0A3.779,3.779,0,0,0-.307-1.525a4.1,4.1,0,0,0-.835-1.244,3.887,3.887,0,0,0-1.236-.844A3.813,3.813,0,0,0-3.9-3.92H-9.36V5.9H-3.9a3.791,3.791,0,0,0,1.527-.308,3.905,3.905,0,0,0,1.236-.843A4.11,4.11,0,0,0-.307,3.5,3.781,3.781,0,0,0,0,1.977ZM.291,18.429-6.341,8H-9.36V18.429h-2.2V-6.017H-3.8a5.839,5.839,0,0,1,2.335.469A6.039,6.039,0,0,1,.444-4.261,6.031,6.031,0,0,1,1.731-2.344,5.924,5.924,0,0,1,2.2,0V1.977a5.915,5.915,0,0,1-.468,2.344A6.058,6.058,0,0,1,.444,6.241,6.061,6.061,0,0,1-1.467,7.528,5.861,5.861,0,0,1-3.8,8L2.831,18.429Z" transform="translate(-3)" fill="#fff"/>
      </g>
      <path id="path5614" d="M598.725-182.472h2.2v24.447h-2.2Z" transform="translate(738 1132.699)" fill="#fff"/>
      <g id="g5616" transform="translate(1347.393 966.885)">
        <path id="path5618" d="M0,0H6.564L3.341-11.269l-.068-.9-.069.9ZM7.143,2.1H-.6L-2.2,7.791H-4.484l7.16-24.447h1.16L11.029,7.791H8.763Z" fill="#fff"/>
      </g>
      <g id="g5620" transform="translate(1371.596 974.675)">
        <path id="path5622" d="M0,0V-24.447H13.757v2.1H2.2v9.088h9.36v2.1H2.2V-2.1H13.757V0Z" fill="#fff"/>
      </g>
      <g id="g5624" transform="translate(1405.177 966.885)">
        <path id="path5626" d="M0,0H6.564L3.34-11.269l-.068-.9-.068.9ZM7.141,2.1H-.6L-2.2,7.791H-4.484l7.16-24.447H3.835L11.029,7.791H8.761Z" fill="#fff"/>
      </g>
      <g id="g5628" transform="translate(1431.829 956.245)">
        <path id="path5630" d="M0,0A3.8,3.8,0,0,0-.307-1.525a4.107,4.107,0,0,0-.836-1.244,3.887,3.887,0,0,0-1.236-.844A3.813,3.813,0,0,0-3.9-3.92H-9.361V5.9h5.456a3.791,3.791,0,0,0,1.527-.308,3.905,3.905,0,0,0,1.236-.843A4.114,4.114,0,0,0-.307,3.5,3.8,3.8,0,0,0,0,1.977ZM.289,18.429-6.343,8H-9.361V18.429h-2.2V-6.017H-3.8a5.84,5.84,0,0,1,2.336.469A6.048,6.048,0,0,1,.443-4.261,6.057,6.057,0,0,1,1.731-2.344,5.947,5.947,0,0,1,2.2,0V1.977a5.938,5.938,0,0,1-.467,2.344,6.084,6.084,0,0,1-1.29,1.92,6.071,6.071,0,0,1-1.91,1.287A5.862,5.862,0,0,1-3.8,8L2.829,18.429Z" fill="#fff"/>
      </g>
      <g id="g5632" transform="translate(1453.338 955.888)">
        <path id="path5634" d="M0,0A3.808,3.808,0,0,0-.307-1.527a4,4,0,0,0-.835-1.236A3.978,3.978,0,0,0-2.379-3.6,3.785,3.785,0,0,0-3.9-3.9H-5.439A3.787,3.787,0,0,0-6.965-3.6a4.034,4.034,0,0,0-1.243.835,3.876,3.876,0,0,0-.845,1.236A3.809,3.809,0,0,0-9.361,0V13.127a3.8,3.8,0,0,0,.308,1.525A3.977,3.977,0,0,0-8.208,15.9a3.991,3.991,0,0,0,1.243.844,3.808,3.808,0,0,0,1.527.307H-3.9a3.807,3.807,0,0,0,1.525-.307A3.937,3.937,0,0,0-1.141,15.9a4.11,4.11,0,0,0,.835-1.245A3.8,3.8,0,0,0,0,13.127ZM1.772,15.376A5.947,5.947,0,0,1,.6,17.236a6.112,6.112,0,0,1-1.764,1.3,5.8,5.8,0,0,1-2.175.589l2.233,5.029h-2.2L-5.54,19.128a5.9,5.9,0,0,1-2.345-.469A6.03,6.03,0,0,1-9.8,17.372a6.008,6.008,0,0,1-1.285-1.909,5.845,5.845,0,0,1-.469-2.336V0a5.84,5.84,0,0,1,.469-2.336A6.028,6.028,0,0,1-9.8-4.247,6.026,6.026,0,0,1-7.885-5.532,5.9,5.9,0,0,1-5.54-6H-3.8a5.84,5.84,0,0,1,2.336.469A6.045,6.045,0,0,1,.443-4.247,6.08,6.08,0,0,1,1.731-2.336,5.885,5.885,0,0,1,2.2,0V13.127a5.954,5.954,0,0,1-.427,2.249" transform="translate(-4)" fill="#fff"/>
      </g>
      <g id="g5636" transform="translate(1468.005 971.351)">
        <path id="path5638" d="M0,0A6.058,6.058,0,0,1-1.288,1.911,6.076,6.076,0,0,1-3.2,3.2a5.845,5.845,0,0,1-2.336.469h-1.74A5.9,5.9,0,0,1-9.616,3.2a6.028,6.028,0,0,1-1.917-1.285A6.01,6.01,0,0,1-12.82,0a5.846,5.846,0,0,1-.471-2.336V-21.123h2.2V-2.336a3.808,3.808,0,0,0,.307,1.527A3.967,3.967,0,0,0-9.94.435a3.958,3.958,0,0,0,1.245.844,3.8,3.8,0,0,0,1.525.307h1.533A3.8,3.8,0,0,0-4.11,1.279,3.893,3.893,0,0,0-2.872.435,4.1,4.1,0,0,0-2.037-.809,3.808,3.808,0,0,0-1.73-2.336V-21.123H.47V-2.336A5.89,5.89,0,0,1,0,0" fill="#fff"/>
      </g>
      <path id="path5640" d="M785.009-182.472h2.2v24.447h-2.2Z" transform="translate(689.214 1132.699)" fill="#fff"/>
      <g id="g5642" transform="translate(1488.016 952.325)">
        <path id="path5644" d="M0,0V22.351H-2.2V0H-8.029V-2.1H5.831V0Z" fill="#fff"/>
      </g>
      <g id="g5646" transform="translate(1497.625 974.675)">
        <path id="path5648" d="M0,0V-24.447H13.759v2.1H2.2v9.088h9.36v2.1H2.2V-2.1H13.759V0Z" fill="#fff"/>
      </g>
      <g id="g5650" transform="translate(1539.452 953.325)">
        <path id="path5652" d="M0,0V22.351H-2.2V0H-8.029V-2.1H5.831V0Z" transform="translate(-16 -1)" fill="#fff"/>
      </g>
      <g id="g5654" transform="translate(1564.994 972.351)">
        <path id="path5656" d="M0,0A6.058,6.058,0,0,1-1.288,1.911,6.076,6.076,0,0,1-3.2,3.2a5.845,5.845,0,0,1-2.336.469H-7.271A5.9,5.9,0,0,1-9.616,3.2a6.028,6.028,0,0,1-1.917-1.285A6.01,6.01,0,0,1-12.82,0a5.845,5.845,0,0,1-.469-2.336V-21.123h2.2V-2.336a3.808,3.808,0,0,0,.307,1.527A3.949,3.949,0,0,0-9.939.435,3.937,3.937,0,0,0-8.7,1.279a3.8,3.8,0,0,0,1.525.307h1.533A3.8,3.8,0,0,0-4.11,1.279,3.893,3.893,0,0,0-2.872.435,4.1,4.1,0,0,0-2.037-.809,3.808,3.808,0,0,0-1.73-2.336V-21.123H.47V-2.336A5.891,5.891,0,0,1,0,0" transform="translate(-20 -1)" fill="#fff"/>
      </g>
      <g id="g5658" transform="translate(1562.199 956.245)">
        <path id="path5660" d="M0,0A3.8,3.8,0,0,0-.307-1.525a4.107,4.107,0,0,0-.836-1.244,3.887,3.887,0,0,0-1.236-.844A3.808,3.808,0,0,0-3.9-3.92H-9.361V5.9h5.456a3.787,3.787,0,0,0,1.527-.308,3.905,3.905,0,0,0,1.236-.843A4.114,4.114,0,0,0-.307,3.5,3.8,3.8,0,0,0,0,1.977ZM.289,18.429-6.343,8H-9.361V18.429h-2.2V-6.017H-3.8a5.84,5.84,0,0,1,2.336.469A6.048,6.048,0,0,1,.443-4.261,6.057,6.057,0,0,1,1.731-2.344,5.947,5.947,0,0,1,2.2,0V1.977a5.938,5.938,0,0,1-.467,2.344,6.084,6.084,0,0,1-1.29,1.92,6.071,6.071,0,0,1-1.91,1.287A5.862,5.862,0,0,1-3.8,8L2.829,18.429Z" fill="#fff"/>
      </g>
      <g id="g5662" transform="translate(1577.536 965.885)">
        <path id="path5664" d="M0,0H6.564L3.341-11.269l-.069-.9-.068.9ZM7.141,2.1H-.6L-2.2,7.791H-4.484l7.16-24.447H3.835L11.029,7.791H8.761Z" transform="translate(-5 1)" fill="#fff"/>
      </g>
    </g>
  </g>
</svg>
