<svg xmlns="http://www.w3.org/2000/svg" width="656.953" height="146.825" viewBox="0 0 656.953 146.825">
  <g id="Reconcavo_Nome" data-name="Reconcavo Nome" transform="translate(-1163.602 -875.221)">
    <g id="g5542" transform="translate(1182.62 937.373)">
      <path id="path5544" d="M0,0H11.777A10.3,10.3,0,0,0,22.2-10.329,10.381,10.381,0,0,0,11.777-20.755H0ZM22.976,35.623l-11.2-19.211H0V35.623H-19.017v-72.4H11.488A26.7,26.7,0,0,1,38.132-10.137a26.592,26.592,0,0,1-8.592,19.5l15.349,26.26Z" fill="#888989"/>
    </g>
    <g id="g5546" transform="translate(1236.864 900.592)">
      <path id="path5548" d="M0,0H44.985V15.736H19.017V27.513H41.993V43.539H19.017V56.861H44.985V72.4H0Z" fill="#888989"/>
    </g>
    <g id="g5550" transform="translate(1342.081 924.533)">
      <path id="path5552" d="M0,0A16.906,16.906,0,0,0-12.164-4.731c-9.847,0-16.991,7.145-16.991,16.991s7.144,16.991,16.991,16.991A16.581,16.581,0,0,0,0,24.424L13.515,37.748A36.272,36.272,0,0,1-12.164,48.463a36.213,36.213,0,0,1-36.2-36.2,36.215,36.215,0,0,1,36.2-36.2A35.812,35.812,0,0,1,13.321-13.417Z" fill="#888989"/>
    </g>
    <g id="g5554" transform="translate(1403.276 919.514)">
      <path id="path5556" d="M0,0A17.242,17.242,0,0,0-17.184,17.28,17.3,17.3,0,0,0,0,34.561,17.326,17.326,0,0,0,17.28,17.28,17.263,17.263,0,0,0,0,0M0-18.921a36.3,36.3,0,0,1,36.2,36.3A36.132,36.132,0,0,1,0,53.481,36.048,36.048,0,0,1-36.1,17.376,36.213,36.213,0,0,1,0-18.921" fill="#888989"/>
    </g>
    <g id="g5558" transform="translate(1505.884 972.995)">
      <path id="path5560" d="M0,0-34.175-34.271V0H-53.193V-72.4h7.724L-11.2-38.229V-72.4H7.817V0Z" fill="#888989"/>
    </g>
    <g id="g5562" transform="translate(1570.071 924.533)">
      <path id="path5564" d="M0,0A16.9,16.9,0,0,0-12.163-4.731c-9.848,0-16.989,7.145-16.989,16.991s7.141,16.991,16.989,16.991A16.576,16.576,0,0,0,0,24.424L13.517,37.748a36.28,36.28,0,0,1-25.68,10.715,36.213,36.213,0,0,1-36.2-36.2,36.215,36.215,0,0,1,36.2-36.2A35.81,35.81,0,0,1,13.323-13.417Z" fill="#888989"/>
    </g>
    <g id="g5566" transform="translate(1624.025 947.51)">
      <path id="path5568" d="M0,0H14.771L7.435-15.929ZM-30.795,25.485l33.788-72.4h8.592l34.077,72.4H26.645L22.2,16.025H-7.432l-4.344,9.46Z" fill="#888989"/>
    </g>
    <g id="g5570" transform="translate(1744.302 900.495)">
      <path id="path5572" d="M0,0-33.692,72.5H-42.38L-76.168,0h19.115l19.017,41.221L-18.921,0Z" fill="#888989"/>
    </g>
    <g id="g5574" transform="translate(1784.356 919.514)">
      <path id="path5576" d="M0,0A17.243,17.243,0,0,0-17.184,17.28,17.306,17.306,0,0,0,0,34.561,17.326,17.326,0,0,0,17.281,17.28,17.263,17.263,0,0,0,0,0M0-18.921a36.3,36.3,0,0,1,36.2,36.3A36.131,36.131,0,0,1,0,53.481,36.05,36.05,0,0,1-36.105,17.376,36.215,36.215,0,0,1,0-18.921" fill="#888989"/>
    </g>
    <g id="g5578" transform="translate(1426.4 894.374)">
      <path id="path5580" d="M0,0-12.9-16.708c-1.3-1.663-2.148-2.445-4.239-2.445H-29.017c-2.088,0-2.931.783-4.243,2.453L-46.16.012a3.207,3.207,0,0,0-.671,1.9,2.17,2.17,0,0,0,2.347,2.124h6.727c1.993,0,2.785-.959,3.788-2.175l10.895-12.7L-12.387,1.615l.208.252c1,1.213,1.795,2.169,3.785,2.169h6.727A2.171,2.171,0,0,0,.681,1.912,3.229,3.229,0,0,0,0,0" fill="#888989"/>
    </g>
    <g id="g5582" transform="translate(1226.423 1016.675)">
      <path id="path5584" d="M0,0V-24.447H13.759v2.1H2.2v9.088h9.359v2.1H2.2V-2.1H13.759V0Z" fill="#888989"/>
    </g>
    <g id="g5586" transform="translate(1263.259 1016.675)">
      <path id="path5588" d="M0,0-10.195-17.8l-.2-1.057V0h-2.2V-24.447h1.143L-1.261-6.632l.221,1.041V-24.447h2.2V0Z" fill="#888989"/>
    </g>
    <g id="g5590" transform="translate(1289.694 1016.675)">
      <path id="path5592" d="M0,0H-.7L-1.977-1.96A6.026,6.026,0,0,1-3.921-.281a5.208,5.208,0,0,1-2.54.623H-7.74a5.891,5.891,0,0,1-2.343-.469A6,6,0,0,1-12-1.415a6.011,6.011,0,0,1-1.287-1.909,5.845,5.845,0,0,1-.469-2.336V-18.787a5.84,5.84,0,0,1,.469-2.336A6.011,6.011,0,0,1-12-23.032a5.979,5.979,0,0,1,1.919-1.287,5.891,5.891,0,0,1,2.343-.469H-6a5.839,5.839,0,0,1,2.335.469,6.026,6.026,0,0,1,1.909,1.287A6.059,6.059,0,0,1-.468-21.123,5.862,5.862,0,0,1,0-18.787v.988l-2.2.341v-1.329a3.8,3.8,0,0,0-.307-1.525,3.989,3.989,0,0,0-.836-1.237,3.972,3.972,0,0,0-1.236-.835A3.8,3.8,0,0,0-6.1-22.692H-7.637a3.809,3.809,0,0,0-1.527.308,4.056,4.056,0,0,0-1.244.835,3.922,3.922,0,0,0-.844,1.237,3.8,3.8,0,0,0-.307,1.525V-5.66a3.8,3.8,0,0,0,.307,1.525,4.018,4.018,0,0,0,.844,1.245,3.967,3.967,0,0,0,1.244.844,3.808,3.808,0,0,0,1.527.307H-6.1a3.8,3.8,0,0,0,1.525-.307,3.887,3.887,0,0,0,1.236-.844,4.089,4.089,0,0,0,.836-1.245A3.8,3.8,0,0,0-2.2-5.66v-5.1H-6.1v-2.1H0Z" fill="#888989"/>
    </g>
    <g id="g5594" transform="translate(1301.23 1016.675)">
      <path id="path5596" d="M0,0V-24.447H13.759v2.1H2.2v9.088h9.36v2.1H2.2V-2.1h11.56V0Z" fill="#888989"/>
    </g>
    <g id="g5598" transform="translate(1338.065 1016.675)">
      <path id="path5600" d="M0,0-10.195-17.8l-.2-1.057V0h-2.2V-24.447h1.143L-1.261-6.632l.221,1.041V-24.447h2.2V0Z" fill="#888989"/>
    </g>
    <g id="g5602" transform="translate(1362.659 1016.675)">
      <path id="path5604" d="M0,0V-11.167H-9.36V0h-2.2V-24.447h2.2v11.184H0V-24.447H2.2V0Z" fill="#888989"/>
    </g>
    <g id="g5606" transform="translate(1378.765 1008.885)">
      <path id="path5608" d="M0,0H6.564L3.341-11.269l-.068-.9-.068.9ZM7.143,2.1H-.6L-2.2,7.791H-4.484l7.16-24.447H3.835l7.2,24.447H8.763Z" fill="#888989"/>
    </g>
    <g id="g5610" transform="translate(1410.417 998.245)">
      <path id="path5612" d="M0,0A3.779,3.779,0,0,0-.307-1.525a4.1,4.1,0,0,0-.835-1.244,3.887,3.887,0,0,0-1.236-.844A3.813,3.813,0,0,0-3.9-3.92H-9.36V5.9H-3.9a3.791,3.791,0,0,0,1.527-.308,3.905,3.905,0,0,0,1.236-.843A4.11,4.11,0,0,0-.307,3.5,3.781,3.781,0,0,0,0,1.977ZM.291,18.429-6.341,8H-9.36V18.429h-2.2V-6.017H-3.8a5.839,5.839,0,0,1,2.335.469A6.039,6.039,0,0,1,.444-4.261,6.031,6.031,0,0,1,1.731-2.344,5.924,5.924,0,0,1,2.2,0V1.977a5.915,5.915,0,0,1-.468,2.344A6.058,6.058,0,0,1,.444,6.241,6.061,6.061,0,0,1-1.467,7.528,5.861,5.861,0,0,1-3.8,8L2.831,18.429Z" fill="#888989"/>
    </g>
    <path id="path5614" d="M598.725-182.472h2.2v24.447h-2.2Z" transform="translate(825 1174.699)" fill="#888989"/>
    <g id="g5616" transform="translate(1439.83 1008.885)">
      <path id="path5618" d="M0,0H6.564L3.341-11.269l-.068-.9-.069.9ZM7.143,2.1H-.6L-2.2,7.791H-4.484l7.16-24.447h1.16L11.029,7.791H8.763Z" fill="#888989"/>
    </g>
    <g id="g5620" transform="translate(1474.596 1016.675)">
      <path id="path5622" d="M0,0V-24.447H13.757v2.1H2.2v9.088h9.36v2.1H2.2V-2.1H13.757V0Z" fill="#888989"/>
    </g>
    <g id="g5624" transform="translate(1515.177 1008.885)">
      <path id="path5626" d="M0,0H6.564L3.34-11.269l-.068-.9-.068.9ZM7.141,2.1H-.6L-2.2,7.791H-4.484l7.16-24.447H3.835L11.029,7.791H8.761Z" fill="#888989"/>
    </g>
    <g id="g5628" transform="translate(1546.829 998.245)">
      <path id="path5630" d="M0,0A3.8,3.8,0,0,0-.307-1.525a4.107,4.107,0,0,0-.836-1.244,3.887,3.887,0,0,0-1.236-.844A3.813,3.813,0,0,0-3.905-3.92H-9.361V5.9h5.456a3.791,3.791,0,0,0,1.527-.308,3.905,3.905,0,0,0,1.236-.843A4.114,4.114,0,0,0-.307,3.5,3.8,3.8,0,0,0,0,1.977ZM.289,18.429-6.343,8H-9.361V18.429h-2.2V-6.017H-3.8a5.84,5.84,0,0,1,2.336.469A6.048,6.048,0,0,1,.443-4.261,6.057,6.057,0,0,1,1.731-2.344,5.947,5.947,0,0,1,2.2,0V1.977a5.938,5.938,0,0,1-.467,2.344A6.084,6.084,0,0,1,.443,6.241,6.071,6.071,0,0,1-1.467,7.528,5.862,5.862,0,0,1-3.8,8L2.829,18.429Z" fill="#888989"/>
    </g>
    <g id="g5632" transform="translate(1571.338 997.888)">
      <path id="path5634" d="M0,0A3.808,3.808,0,0,0-.307-1.527a4,4,0,0,0-.835-1.236A3.978,3.978,0,0,0-2.379-3.6,3.785,3.785,0,0,0-3.9-3.905H-5.439A3.787,3.787,0,0,0-6.965-3.6a4.034,4.034,0,0,0-1.243.835,3.876,3.876,0,0,0-.845,1.236A3.809,3.809,0,0,0-9.361,0V13.127a3.8,3.8,0,0,0,.308,1.525A3.977,3.977,0,0,0-8.208,15.9a3.991,3.991,0,0,0,1.243.844,3.808,3.808,0,0,0,1.527.307H-3.9a3.807,3.807,0,0,0,1.525-.307A3.937,3.937,0,0,0-1.141,15.9a4.11,4.11,0,0,0,.835-1.245A3.8,3.8,0,0,0,0,13.127ZM1.772,15.376A5.947,5.947,0,0,1,.6,17.236a6.112,6.112,0,0,1-1.764,1.3,5.8,5.8,0,0,1-2.175.589l2.233,5.029h-2.2L-5.54,19.128a5.9,5.9,0,0,1-2.345-.469A6.03,6.03,0,0,1-9.8,17.372a6.008,6.008,0,0,1-1.285-1.909,5.845,5.845,0,0,1-.469-2.336V0a5.84,5.84,0,0,1,.469-2.336A6.028,6.028,0,0,1-9.8-4.247,6.026,6.026,0,0,1-7.885-5.532,5.9,5.9,0,0,1-5.54-6H-3.8a5.84,5.84,0,0,1,2.336.469A6.045,6.045,0,0,1,.443-4.247,6.08,6.08,0,0,1,1.731-2.336,5.885,5.885,0,0,1,2.2,0V13.127a5.954,5.954,0,0,1-.427,2.249" fill="#888989"/>
    </g>
    <g id="g5636" transform="translate(1598.005 1013.351)">
      <path id="path5638" d="M0,0A6.058,6.058,0,0,1-1.288,1.911,6.076,6.076,0,0,1-3.2,3.2a5.845,5.845,0,0,1-2.336.469h-1.74A5.9,5.9,0,0,1-9.616,3.2a6.028,6.028,0,0,1-1.917-1.285A6.01,6.01,0,0,1-12.82,0a5.846,5.846,0,0,1-.471-2.336V-21.123h2.2V-2.336a3.808,3.808,0,0,0,.307,1.527A3.967,3.967,0,0,0-9.94.435a3.958,3.958,0,0,0,1.245.844,3.8,3.8,0,0,0,1.525.307h1.533a3.8,3.8,0,0,0,1.527-.307A3.893,3.893,0,0,0-2.872.435,4.1,4.1,0,0,0-2.037-.809a3.808,3.808,0,0,0,.307-1.527V-21.123h2.2V-2.336A5.89,5.89,0,0,1,0,0" fill="#888989"/>
    </g>
    <path id="path5640" d="M785.009-182.472h2.2v24.447h-2.2Z" transform="translate(825 1174.699)" fill="#888989"/>
    <g id="g5642" transform="translate(1630.016 994.325)">
      <path id="path5644" d="M0,0V22.351H-2.2V0H-8.029V-2.1H5.831V0Z" fill="#888989"/>
    </g>
    <g id="g5646" transform="translate(1645.625 1016.675)">
      <path id="path5648" d="M0,0V-24.447H13.759v2.1H2.2v9.088h9.36v2.1H2.2V-2.1H13.759V0Z" fill="#888989"/>
    </g>
    <g id="g5650" transform="translate(1675.796 994.325)">
      <path id="path5652" d="M0,0V22.351H-2.2V0H-8.029V-2.1H5.831V0Z" fill="#888989"/>
    </g>
    <g id="g5654" transform="translate(1704.338 1013.351)">
      <path id="path5656" d="M0,0A6.058,6.058,0,0,1-1.288,1.911,6.076,6.076,0,0,1-3.2,3.2a5.845,5.845,0,0,1-2.336.469H-7.271A5.9,5.9,0,0,1-9.616,3.2a6.028,6.028,0,0,1-1.917-1.285A6.01,6.01,0,0,1-12.82,0a5.845,5.845,0,0,1-.469-2.336V-21.123h2.2V-2.336a3.808,3.808,0,0,0,.307,1.527A3.949,3.949,0,0,0-9.939.435a3.937,3.937,0,0,0,1.244.844,3.8,3.8,0,0,0,1.525.307h1.533a3.8,3.8,0,0,0,1.527-.307A3.893,3.893,0,0,0-2.872.435,4.1,4.1,0,0,0-2.037-.809a3.808,3.808,0,0,0,.307-1.527V-21.123h2.2V-2.336A5.891,5.891,0,0,1,0,0" fill="#888989"/>
    </g>
    <g id="g5658" transform="translate(1727.543 998.245)">
      <path id="path5660" d="M0,0A3.8,3.8,0,0,0-.307-1.525a4.107,4.107,0,0,0-.836-1.244,3.887,3.887,0,0,0-1.236-.844A3.808,3.808,0,0,0-3.905-3.92H-9.361V5.9h5.456a3.787,3.787,0,0,0,1.527-.308,3.905,3.905,0,0,0,1.236-.843A4.114,4.114,0,0,0-.307,3.5,3.8,3.8,0,0,0,0,1.977ZM.289,18.429-6.343,8H-9.361V18.429h-2.2V-6.017H-3.8a5.84,5.84,0,0,1,2.336.469A6.048,6.048,0,0,1,.443-4.261,6.057,6.057,0,0,1,1.731-2.344,5.947,5.947,0,0,1,2.2,0V1.977a5.938,5.938,0,0,1-.467,2.344A6.084,6.084,0,0,1,.443,6.241,6.071,6.071,0,0,1-1.467,7.528,5.862,5.862,0,0,1-3.8,8L2.829,18.429Z" fill="#888989"/>
    </g>
    <g id="g5662" transform="translate(1742.88 1008.885)">
      <path id="path5664" d="M0,0H6.564L3.341-11.269l-.069-.9-.068.9ZM7.141,2.1H-.6L-2.2,7.791H-4.484l7.16-24.447H3.835L11.029,7.791H8.761Z" fill="#888989"/>
    </g>
  </g>
</svg>
