<svg xmlns="http://www.w3.org/2000/svg" xmlns:xlink="http://www.w3.org/1999/xlink" width="35" height="35" viewBox="0 0 35 35">
  <defs>
    <clipPath id="clip-path">
      <rect id="Retângulo_32" data-name="Retângulo 32" width="35" height="35" transform="translate(66 2482)" fill="#fff" stroke="#707070" stroke-width="1"/>
    </clipPath>
  </defs>
  <g id="whatsapp-icon" transform="translate(-66 -2482)" clip-path="url(#clip-path)">
    <path id="whatsapp" d="M29.839,5.086A17.343,17.343,0,0,0,2.55,26.011L.089,35l9.194-2.413A17.338,17.338,0,0,0,17.568,34.7h.007A17.348,17.348,0,0,0,29.839,5.086ZM17.575,31.773h0a14.4,14.4,0,0,1-7.342-2.01l-.526-.314L4.252,30.878,5.708,25.56l-.342-.547A14.419,14.419,0,0,1,27.774,7.15a14.429,14.429,0,0,1-10.2,24.623Zm7.9-10.8c-.431-.219-2.563-1.265-2.96-1.408s-.684-.219-.978.219-1.121,1.408-1.374,1.7-.506.328-.937.109a11.929,11.929,0,0,1-3.486-2.153,13.243,13.243,0,0,1-2.413-3c-.253-.431-.027-.67.191-.882.2-.191.431-.506.649-.759a2.783,2.783,0,0,0,.431-.725.8.8,0,0,0-.034-.759c-.109-.219-.978-2.352-1.333-3.22-.349-.848-.711-.731-.978-.745s-.54-.014-.827-.014a1.6,1.6,0,0,0-1.155.54,4.859,4.859,0,0,0-1.518,3.616,8.437,8.437,0,0,0,1.771,4.484c.219.287,3.056,4.669,7.4,6.542,1.032.444,1.839.711,2.468.916a5.986,5.986,0,0,0,2.728.171,4.457,4.457,0,0,0,2.926-2.058,3.593,3.593,0,0,0,.253-2.058C26.2,21.3,25.915,21.191,25.478,20.973Z" transform="translate(65.997 2482)" fill="#fff"/>
  </g>
</svg>
